<svg id="Layer_1" data-name="Layer 1" xmlns="http://www.w3.org/2000/svg" viewBox="0 0 699.24 385.09"><defs><style>.cls-1{fill:#f2798f;}.cls-2{fill:none;}.cls-3,.cls-4{fill:#88f2f2;}.cls-3{stroke:#88f2f2;stroke-miterlimit:10;stroke-width:4px;}</style></defs><title>New Logo JAMH</title><circle class="cls-1" cx="686.74" cy="264.16" r="12.5"/><path class="cls-2" d="M382.62,499.71q6.19-4,6.2-14,0-8.79-8.8-13.4t-21.6-4.6q-18,0-25,7.31t-8.6,19.09H312.59v21.76q4-1.18,8.23-2.16,17.6-4,38-7.2Q376.42,503.72,382.62,499.71Z" transform="translate(-189.38 -350.45)"/><path class="cls-2" d="M379.82,541.51q-6.6,1.8-20.2,4.6-21.6,4.8-29.4,11.6a21.85,21.85,0,0,0-7.8,17.2q0,19.61,22.4,19.6a50.78,50.78,0,0,0,19.2-3.4,37.86,37.86,0,0,0,13.8-9.2,42.65,42.65,0,0,0,8.4-13.2,40.58,40.58,0,0,0,3-15.4l.4-17.6Q386.41,539.71,379.82,541.51Z" transform="translate(-189.38 -350.45)"/><rect class="cls-1" x="62.81" width="60.4" height="51.2"/><path class="cls-1" d="M445,468.22a60.16,60.16,0,0,0-15-25.35q-10.41-10.38-27.4-15.77t-41.4-5.39q-24.81,0-42,5.4c-2.3.72-4.5,1.52-6.63,2.36v-3.42h-60.4v232q0,8.4-4.8,13t-13.2,4.6h-14.8v52.8h15.2q39.06,0,58.52-18.6t19.48-47.4V636.4a125,125,0,0,0,18.63,1.31q22.8,0,38.2-6.4t23.4-16.8a59.31,59.31,0,0,0,1.4,9,75.86,75.86,0,0,0,2.6,8.6h52.8V502.75Q449.62,483.21,445,468.22ZM312.59,515.87V494.11h12.23q1.59-11.78,8.6-19.09t25-7.31q12.79,0,21.6,4.6t8.8,13.4q0,10-6.2,14t-23.8,6.8q-20.4,3.21-38,7.2Q316.56,514.68,312.59,515.87Zm76.63,37.44a40.58,40.58,0,0,1-3,15.4,42.65,42.65,0,0,1-8.4,13.2,37.86,37.86,0,0,1-13.8,9.2,50.78,50.78,0,0,1-19.2,3.4q-22.41,0-22.4-19.6a21.85,21.85,0,0,1,7.8-17.2q7.8-6.8,29.4-11.6,13.59-2.79,20.2-4.6t9.8-5.8Z" transform="translate(-189.38 -350.45)"/><path class="cls-1" d="M631,631.25V504.85q0-16-7.4-23.8t-19-7.8a36.37,36.37,0,0,0-11.2,1.8,27,27,0,0,0-10,5.8,32.61,32.61,0,0,0-10.4,24.8v125.6h-60.4v-126q0-20-7-26.6t-21.8-6.6q-14,0-21.4,7.2t-7.4,25.2v126.8h-60.4V426.05h56.8v26q10-18,23.8-24.8t34.2-6.8q20.79,0,33.6,6.4t23.6,22.4q8-14.79,20.8-21.8t34.4-7a71.21,71.21,0,0,1,28.8,5.6,66.38,66.38,0,0,1,21.6,14.8,62.76,62.76,0,0,1,13.4,21.4,71.58,71.58,0,0,1,4.6,25.4v143.6Z" transform="translate(-189.38 -350.45)"/><path class="cls-1" d="M781.18,631.25V502.85q0-19.2-7.4-26.8t-24.2-7.6q-18,0-26.8,10.4t-8.8,28.4v124h-60.4V350.85H714l-.13,99.45a51.61,51.61,0,0,1,21.95-22.18q14.78-8.06,35.13-8.07a84.58,84.58,0,0,1,28.54,4.62,66.14,66.14,0,0,1,22.35,13,58.38,58.38,0,0,1,14.56,20.24,64.43,64.43,0,0,1,5.2,26.24V631.25Z" transform="translate(-189.38 -350.45)"/><path class="cls-3" d="M611,633.35V507q0-16-7.4-23.8t-19-7.8a36.42,36.42,0,0,0-11.2,1.8,26.94,26.94,0,0,0-10,5.8,32.61,32.61,0,0,0-10.4,24.8v125.6h-60.4v-126q0-20-7-26.6t-21.8-6.6q-14,0-21.4,7.2t-7.4,25.2v126.8h-60.4V428.15h56.8v26q10-18,23.8-24.8t34.2-6.8q20.81,0,33.6,6.4t23.6,22.4q8-14.81,20.8-21.8t34.4-7a71,71,0,0,1,28.8,5.6,66.07,66.07,0,0,1,21.6,14.8,62.67,62.67,0,0,1,13.4,21.4,71.54,71.54,0,0,1,4.6,25.4v143.6Z" transform="translate(-189.38 -350.45)"/><rect class="cls-3" x="34.8" y="6.09" width="60.4" height="51.2"/><path class="cls-3" d="M236.22,583.51q0-20,7.2-32.6a56.31,56.31,0,0,1,20-20.4,93.48,93.48,0,0,1,21.16-9.32V499.11H243a87.84,87.84,0,0,1,5.4-29.2,57.25,57.25,0,0,1,15.8-22.8,69.89,69.89,0,0,1,20.36-12.25v-3.71h-60.4v232q0,8.4-4.8,13t-13.2,4.6h-14.8v52.8h15.2q39.06,0,58.53-18.6t19.47-47.4v-26.3q-20.54-3.35-32-14.34Q236.21,611.12,236.22,583.51Z" transform="translate(-189.38 -350.45)"/><path class="cls-3" d="M418,469.22a60.16,60.16,0,0,0-15-25.35q-10.41-10.38-27.4-15.77t-41.4-5.39q-24.81,0-42,5.4c-2.67.84-5.2,1.76-7.64,2.75v64.25h13.24q1.59-11.78,8.6-19.09t25-7.31q12.79,0,21.6,4.6t8.8,13.4q0,10-6.2,14t-23.8,6.8q-20.4,3.21-38,7.2-4.8,1.1-9.24,2.48V637.25a122.73,122.73,0,0,0,19.64,1.46q22.8,0,38.2-6.4t23.4-16.8a59.31,59.31,0,0,0,1.4,9,75.86,75.86,0,0,0,2.6,8.6h52.8V503.75Q422.62,484.21,418,469.22Zm-55.8,85.09a40.58,40.58,0,0,1-3,15.4,42.65,42.65,0,0,1-8.4,13.2,37.86,37.86,0,0,1-13.8,9.2,50.78,50.78,0,0,1-19.2,3.4q-22.41,0-22.4-19.6a21.85,21.85,0,0,1,7.8-17.2q7.8-6.8,29.4-11.6,13.59-2.79,20.2-4.6t9.8-5.8Z" transform="translate(-189.38 -350.45)"/><path class="cls-4" d="M760.17,635.35V507q0-19.2-7.4-26.8t-24.2-7.6q-18,0-26.8,10.4t-8.8,28.4v124h-60.4V355H693l-.13,99.45a51.5,51.5,0,0,1,21.95-22.18q14.78-8.07,35.13-8.07a84.58,84.58,0,0,1,28.54,4.61,66.14,66.14,0,0,1,22.35,13A58.48,58.48,0,0,1,815.37,462a64.44,64.44,0,0,1,5.2,26.25V635.35Z" transform="translate(-189.38 -350.45)"/><circle class="cls-4" cx="675.74" cy="271.16" r="12.5"/></svg>